<?xml version="1.0" encoding="UTF-8"?>
<svg id="svg8" width="56" height="56" version="1.1" viewBox="0 0 14.816 14.816" xml:space="preserve" xmlns="http://www.w3.org/2000/svg" xmlns:cc="http://creativecommons.org/ns#" xmlns:dc="http://purl.org/dc/elements/1.1/" xmlns:rdf="http://www.w3.org/1999/02/22-rdf-syntax-ns#"><metadata id="metadata2"><rdf:RDF><cc:Work rdf:about=""><dc:format>image/svg+xml</dc:format><dc:type rdf:resource="http://purl.org/dc/dcmitype/StillImage"/><dc:creator><cc:Agent><dc:title>SPDX-FileCopyrightText: Mirian Margiani</dc:title></cc:Agent></dc:creator><cc:license rdf:resource="http://creativecommons.org/licenses/by-sa/4.0/"/><dc:date>2023</dc:date></cc:Work><cc:License rdf:about="http://creativecommons.org/licenses/by-sa/4.0/"><cc:permits rdf:resource="http://creativecommons.org/ns#Reproduction"/><cc:permits rdf:resource="http://creativecommons.org/ns#Distribution"/><cc:requires rdf:resource="http://creativecommons.org/ns#Notice"/><cc:requires rdf:resource="http://creativecommons.org/ns#Attribution"/><cc:permits rdf:resource="http://creativecommons.org/ns#DerivativeWorks"/><cc:requires rdf:resource="http://creativecommons.org/ns#ShareAlike"/></cc:License></rdf:RDF></metadata><g id="rect434"><path id="path354" d="m7.4082 0.43924c-3.8561 0-6.9689 3.1128-6.9689 6.9689 0 3.8561 3.1128 6.9689 6.9689 6.9689 3.8561 0 6.9689-3.1128 6.9689-6.9689 0-3.8561-3.1128-6.9689-6.9689-6.9689zm3.6581 3.6845a1.0583 1.0583 0 0 1 0.57411 0.21807 1.0583 1.0583 0 0 1 0.19172 1.4846l-4.2539 5.5096a1.0584 1.0584 0 0 1-1.5683 0.12092l-2.0644-1.9704a1.0583 1.0583 0 0 1-0.037206-1.4965 1.0583 1.0583 0 0 1 1.4981-0.03669l1.2149 1.1601 3.5351-4.5805a1.0583 1.0583 0 0 1 0.91-0.40927z" color="#000000" fill="#fff" stroke-linejoin="round" style="-inkscape-stroke:none"/></g></svg>
